<mxfile host="app.diagrams.net" modified="2022-04-26T02:12:29.123Z" agent="5.0 (Macintosh; Intel Mac OS X 10_15_7) AppleWebKit/537.36 (KHTML, like Gecko) Chrome/100.0.4896.127 Safari/537.36" etag="SWhPx695c7p5cRxPH_sc" version="17.4.6" type="github">
  <diagram id="fUlh89eGbGfTQE4LxNMi" name="第 1 页">
    <mxGraphModel dx="946" dy="589" grid="1" gridSize="10" guides="1" tooltips="1" connect="1" arrows="1" fold="1" page="1" pageScale="1" pageWidth="827" pageHeight="1169" math="0" shadow="0">
      <root>
        <mxCell id="0" />
        <mxCell id="1" parent="0" />
        <mxCell id="PKwNBz5Ds79KffvbisSa-12" value="" style="edgeStyle=orthogonalEdgeStyle;rounded=0;orthogonalLoop=1;jettySize=auto;html=1;" edge="1" parent="1" source="PKwNBz5Ds79KffvbisSa-1" target="PKwNBz5Ds79KffvbisSa-11">
          <mxGeometry relative="1" as="geometry" />
        </mxCell>
        <mxCell id="PKwNBz5Ds79KffvbisSa-1" value="" style="rounded=1;whiteSpace=wrap;html=1;" vertex="1" parent="1">
          <mxGeometry x="200" y="80" width="120" height="60" as="geometry" />
        </mxCell>
        <mxCell id="PKwNBz5Ds79KffvbisSa-11" value="测试" style="rhombus;whiteSpace=wrap;html=1;rounded=1;" vertex="1" parent="1">
          <mxGeometry x="220" y="210" width="80" height="80" as="geometry" />
        </mxCell>
      </root>
    </mxGraphModel>
  </diagram>
</mxfile>
